<?xml version="1.0" encoding="UTF-8"?> <svg xmlns="http://www.w3.org/2000/svg" xmlns:xlink="http://www.w3.org/1999/xlink" width="34px" height="34px" viewBox="0 0 34 34"><!-- Generator: Sketch 52.6 (67491) - http://www.bohemiancoding.com/sketch --><title>Group</title><desc>Created with Sketch.</desc><defs><linearGradient x1="29.2971442%" y1="30.757796%" x2="82.8448053%" y2="76.4667019%" id="linearGradient-1"><stop stop-color="#41A5DC" offset="0%"></stop><stop stop-color="#5EBDF2" offset="100%"></stop></linearGradient></defs><g id="Symbols" stroke="none" stroke-width="1" fill="none" fill-rule="evenodd"><g id="Footer-desktop-Des" transform="translate(-269.000000, -428.000000)"><g id="Footer-desktop"><g id="Group"><g transform="translate(269.123675, 428.000000)"><g id="Group-2"><circle id="Oval" fill="#6E7881" cx="18" cy="17" r="15"></circle><g id="Social-Media-/-Small-/-Dark-/-Instagram" fill="#E2E2E2" fill-rule="nonzero"><g id="Social-Media-/-Small-/-Dark-/-Instagram-2"><g id="Social-Media-/-Small-/-Dark-/-Instagram" transform="translate(0.000000, -0.000000)"><path d="M21.6026589,8.85540286 L11.6822344,8.85540286 C10.0987934,8.85540286 8.81053252,10.1436637 8.81053252,11.7271047 L8.81053252,21.6475292 C8.81053252,23.2309702 10.0987934,24.5196019 11.6822344,24.5196019 L21.6026589,24.5196019 C23.1860998,24.5196019 24.4747315,23.231341 24.4747315,21.6475292 L24.4747315,11.7271047 C24.4747315,10.1436637 23.1864707,8.85540286 21.6026589,8.85540286 Z M16.6424466,21.8440687 C13.7992986,21.8440687 11.4860657,19.5308358 11.4860657,16.6873169 C11.4860657,13.844169 13.7992986,11.530936 16.6424466,11.530936 C19.4859654,11.530936 21.7991984,13.844169 21.7991984,16.6873169 C21.7991984,19.5304649 19.4855946,21.8440687 16.6424466,21.8440687 Z M21.9649591,12.5970701 C21.2919039,12.5970701 20.7445599,12.0497262 20.7445599,11.3770419 C20.7445599,10.7043576 21.2919039,10.1570136 21.9649591,10.1570136 C22.6376433,10.1570136 23.1849873,10.7043576 23.1849873,11.3770419 C23.1849873,12.0497262 22.6376433,12.5970701 21.9649591,12.5970701 Z" id="Shape"></path><path d="M16.6424466,13.7099288 C15.0011563,13.7099288 13.6646876,15.0456558 13.6646876,16.6869461 C13.6646876,18.3289781 15.0011563,19.6650759 16.6424466,19.6650759 C18.2844786,19.6650759 19.6198348,18.3289781 19.6198348,16.6869461 C19.6198348,15.0460266 18.2841078,13.7099288 16.6424466,13.7099288 Z" id="Shape"></path><path d="M16.6424466,0 C7.45144326,0 0,7.45144326 0,16.6424466 C0,25.83345 7.45144326,33.2848932 16.6424466,33.2848932 C25.83345,33.2848932 33.2848932,25.83345 33.2848932,16.6424466 C33.2848932,7.45144326 25.83345,0 16.6424466,0 Z M26.6533535,21.6475292 C26.6533535,24.4328278 24.3879575,26.6982238 21.6026589,26.6982238 L11.6822344,26.6982238 C8.89730657,26.6982238 6.63153975,24.4328278 6.63153975,21.6475292 L6.63153975,11.7271047 C6.63153975,8.94217691 8.89730657,6.6764101 11.6822344,6.6764101 L21.6026589,6.6764101 C24.3879575,6.6764101 26.6533535,8.94217691 26.6533535,11.7271047 L26.6533535,21.6475292 Z" id="Shape"></path></g></g></g></g></g></g></g></g></g></svg> 