<?xml version="1.0" encoding="UTF-8" standalone="no"?>
<svg width="54px" height="51px" viewBox="0 0 54 51" version="1.1" xmlns="http://www.w3.org/2000/svg" xmlns:xlink="http://www.w3.org/1999/xlink">
    <!-- Generator: Sketch 3.6 (26304) - http://www.bohemiancoding.com/sketch -->
    <title>Page 1</title>
    <desc>Created with Sketch.</desc>
    <defs></defs>
    <g id="Welcome" stroke="none" stroke-width="1" fill="none" fill-rule="evenodd">
        <g id="Free-Business-Name-Generator" transform="translate(-1003.000000, -579.000000)" stroke="#33383B" stroke-width="1.75">
            <g id="Page-1" transform="translate(1004.000000, 579.000000)">
                <path d="M47.7595652,16.7513043 L36.0965217,16.7513043 C34.6530435,16.7513043 33.3204348,15.8078261 32.8747826,14.4186957 L29.266087,3.31217391 C28.766087,1.75565217 27.3769565,0.979565217 26.0443478,0.979565217 C24.7117391,0.979565217 23.3226087,1.75565217 22.8226087,3.31217391 L19.213913,14.4186957 C18.7682609,15.8078261 17.4356522,16.7513043 15.9921739,16.7513043 L4.21826087,16.7513043 C0.942173913,16.7513043 -0.446956522,20.9730435 2.21826087,22.9165217 L11.6595652,29.8034783 C12.8269565,30.6904348 13.3269565,32.1904348 12.8813043,33.633913 L9.2726087,44.7426087 C8.49434783,47.1295652 10.3834783,49.183913 12.5486957,49.183913 C13.216087,49.183913 13.8813043,48.9621739 14.5486957,48.5186957 L23.99,41.6317391 C24.6008696,41.1882609 25.266087,40.9643478 25.99,40.9643478 C26.7117391,40.9643478 27.3769565,41.1882609 27.9878261,41.6317391 L37.4291304,48.5186957 C38.0965217,48.9621739 38.7617391,49.183913 39.4291304,49.183913 C41.54,49.183913 43.4269565,47.0752174 42.7052174,44.7426087 L39.0965217,33.633913 C38.6508696,32.2469565 39.1508696,30.6904348 40.3182609,29.8034783 L49.7595652,22.9165217 C52.4247826,21.0273913 51.0921739,16.7513043 47.7595652,16.7513043 L47.7595652,16.7513043 Z" id="Stroke-3"></path>
            </g>
        </g>
    </g>
</svg>